<svg xmlns="http://www.w3.org/2000/svg" xmlns:xlink="http://www.w3.org/1999/xlink" width="125" zoomAndPan="magnify" viewBox="0 0 93.75 30.000001" height="40" preserveAspectRatio="xMidYMid meet" version="1.0"><defs><g/><clipPath id="596b78610e"><path d="M 2.5 1.933594 L 28.019531 1.933594 L 28.019531 27.453125 L 2.5 27.453125 Z M 2.5 1.933594 " clip-rule="nonzero"/></clipPath></defs><g clip-path="url(#596b78610e)"><path fill="#624e88" d="M 12.554688 27.074219 C 12.859375 27.074219 13.144531 26.933594 13.332031 26.699219 L 19.246094 19.414062 C 19.488281 19.109375 19.851562 18.925781 20.238281 18.898438 C 21.71875 18.804688 22.3125 20.765625 21.03125 21.507812 L 20.964844 21.546875 C 19.585938 22.332031 18.203125 23.117188 16.820312 23.902344 C 16.710938 23.964844 16.613281 24.046875 16.535156 24.144531 L 15.523438 25.398438 C 14.992188 26.058594 15.460938 27.039062 16.308594 27.039062 C 17.769531 27.035156 19.234375 27.03125 20.695312 27.027344 C 21.003906 27.027344 21.292969 26.886719 21.484375 26.644531 L 22.964844 24.769531 C 23.152344 24.53125 23.222656 24.222656 23.160156 23.925781 L 21.148438 14.765625 C 21.0625 14.382812 21.144531 13.984375 21.367188 13.664062 C 22.210938 12.449219 24.117188 13.207031 23.898438 14.671875 L 23.886719 14.746094 C 23.636719 16.316406 23.390625 17.886719 23.140625 19.457031 C 23.125 19.582031 23.125 19.710938 23.15625 19.832031 L 23.503906 21.402344 C 23.6875 22.230469 24.75 22.476562 25.277344 21.8125 C 26.121094 20.75 27.203125 19.386719 28.003906 18.378906 C 28.195312 18.136719 28.265625 17.824219 28.195312 17.523438 L 27.652344 15.195312 C 27.585938 14.898438 27.386719 14.652344 27.117188 14.519531 L 18.699219 10.378906 C 18.347656 10.207031 18.085938 9.894531 17.972656 9.523438 C 17.550781 8.105469 19.332031 7.085938 20.339844 8.171875 L 20.390625 8.226562 C 21.464844 9.398438 22.535156 10.570312 23.609375 11.742188 C 23.695312 11.835938 23.796875 11.914062 23.910156 11.96875 L 25.359375 12.675781 C 26.121094 13.046875 26.972656 12.371094 26.78125 11.542969 C 26.453125 10.121094 26.125 8.695312 25.796875 7.269531 C 25.730469 6.972656 25.527344 6.71875 25.25 6.585938 L 23.089844 5.5625 C 22.816406 5.429688 22.5 5.429688 22.226562 5.558594 L 13.742188 9.558594 C 13.386719 9.726562 12.980469 9.734375 12.621094 9.589844 C 11.246094 9.039062 11.5625 7.007812 13.039062 6.898438 L 13.113281 6.894531 C 14.699219 6.785156 16.285156 6.679688 17.871094 6.570312 C 17.996094 6.5625 18.121094 6.527344 18.234375 6.476562 L 19.6875 5.785156 C 20.457031 5.421875 20.457031 4.332031 19.691406 3.964844 C 18.375 3.332031 17.054688 2.703125 15.738281 2.070312 C 15.460938 1.9375 15.136719 1.941406 14.859375 2.074219 L 12.710938 3.121094 C 12.441406 3.253906 12.242188 3.5 12.171875 3.796875 L 10.007812 12.925781 C 9.917969 13.304688 9.671875 13.628906 9.335938 13.820312 C 8.046875 14.546875 6.65625 13.039062 7.492188 11.8125 L 7.53125 11.753906 C 8.4375 10.445312 9.339844 9.140625 10.246094 7.832031 C 10.316406 7.726562 10.371094 7.609375 10.398438 7.488281 L 10.765625 5.917969 C 10.957031 5.09375 10.109375 4.414062 9.34375 4.78125 C 8.125 5.375 6.554688 6.132812 5.398438 6.691406 C 5.121094 6.828125 4.921875 7.082031 4.855469 7.382812 L 4.332031 9.714844 C 4.269531 10.011719 4.339844 10.320312 4.523438 10.558594 L 10.3125 17.941406 C 10.554688 18.246094 10.652344 18.640625 10.59375 19.023438 C 10.359375 20.484375 8.3125 20.628906 7.875 19.214844 L 7.851562 19.144531 C 7.394531 17.621094 6.9375 16.101562 6.476562 14.578125 C 6.441406 14.457031 6.382812 14.34375 6.304688 14.246094 L 5.308594 12.980469 C 4.78125 12.3125 3.71875 12.554688 3.53125 13.382812 C 3.210938 14.808594 2.886719 16.234375 2.566406 17.660156 C 2.496094 17.957031 2.570312 18.273438 2.761719 18.511719 L 4.265625 20.375 C 4.453125 20.609375 4.738281 20.75 5.039062 20.75 L 14.421875 20.828125 C 14.8125 20.832031 15.183594 21 15.445312 21.285156 C 16.441406 22.378906 15.277344 24.070312 13.898438 23.53125 L 13.832031 23.503906 C 12.355469 22.914062 10.878906 22.320312 9.402344 21.730469 C 9.285156 21.683594 9.160156 21.660156 9.035156 21.65625 L 7.425781 21.648438 C 6.578125 21.644531 6.101562 22.625 6.632812 23.289062 C 7.546875 24.425781 8.457031 25.570312 9.371094 26.710938 C 9.566406 26.949219 9.855469 27.089844 10.164062 27.085938 Z M 9.871094 16.027344 L 10.695312 12.082031 C 10.757812 11.78125 10.953125 11.523438 11.226562 11.386719 L 14.824219 9.570312 C 15.101562 9.429688 15.421875 9.425781 15.699219 9.550781 L 19.367188 11.230469 C 19.644531 11.359375 19.851562 11.609375 19.921875 11.90625 L 20.894531 15.820312 C 20.96875 16.117188 20.902344 16.433594 20.714844 16.675781 L 18.261719 19.875 C 18.074219 20.117188 17.789062 20.261719 17.480469 20.269531 L 13.449219 20.347656 C 13.144531 20.351562 12.851562 20.21875 12.652344 19.980469 L 10.082031 16.875 C 9.886719 16.640625 9.808594 16.328125 9.871094 16.027344 Z M 9.871094 16.027344 " fill-opacity="1" fill-rule="nonzero"/></g><g fill="#624e88" fill-opacity="1"><g transform="translate(31.354037, 15.734278)"><g><path d="M 4 -7.1875 C 4.65625 -7.1875 5.222656 -7.078125 5.703125 -6.859375 C 6.179688 -6.648438 6.550781 -6.34375 6.8125 -5.9375 C 7.070312 -5.539062 7.203125 -5.070312 7.203125 -4.53125 C 7.203125 -3.988281 7.070312 -3.519531 6.8125 -3.125 C 6.550781 -2.726562 6.179688 -2.421875 5.703125 -2.203125 C 5.222656 -1.984375 4.65625 -1.875 4 -1.875 L 2.75 -1.875 L 2.75 0 L 0.71875 0 L 0.71875 -7.1875 Z M 3.875 -3.484375 C 4.289062 -3.484375 4.601562 -3.570312 4.8125 -3.75 C 5.03125 -3.9375 5.140625 -4.195312 5.140625 -4.53125 C 5.140625 -4.863281 5.03125 -5.117188 4.8125 -5.296875 C 4.601562 -5.484375 4.289062 -5.578125 3.875 -5.578125 L 2.75 -5.578125 L 2.75 -3.484375 Z M 3.875 -3.484375 "/></g></g></g><g fill="#624e88" fill-opacity="1"><g transform="translate(38.758363, 15.734278)"><g><path d="M 6.484375 -1.578125 L 6.484375 0 L 0.71875 0 L 0.71875 -7.1875 L 6.359375 -7.1875 L 6.359375 -5.609375 L 2.734375 -5.609375 L 2.734375 -4.40625 L 5.921875 -4.40625 L 5.921875 -2.890625 L 2.734375 -2.890625 L 2.734375 -1.578125 Z M 6.484375 -1.578125 "/></g></g></g><g fill="#624e88" fill-opacity="1"><g transform="translate(45.496075, 15.734278)"><g><path d="M 7.5625 -7.1875 L 7.5625 0 L 5.875 0 L 2.703125 -3.828125 L 2.703125 0 L 0.71875 0 L 0.71875 -7.1875 L 2.390625 -7.1875 L 5.5625 -3.359375 L 5.5625 -7.1875 Z M 7.5625 -7.1875 "/></g></g></g><g fill="#624e88" fill-opacity="1"><g transform="translate(53.608038, 15.734278)"><g><path d="M 6.234375 -3.75 C 6.648438 -3.601562 6.972656 -3.378906 7.203125 -3.078125 C 7.441406 -2.773438 7.5625 -2.40625 7.5625 -1.96875 C 7.5625 -1.34375 7.304688 -0.859375 6.796875 -0.515625 C 6.285156 -0.171875 5.550781 0 4.59375 0 L 0.71875 0 L 0.71875 -7.1875 L 4.390625 -7.1875 C 5.304688 -7.1875 6.003906 -7.015625 6.484375 -6.671875 C 6.960938 -6.335938 7.203125 -5.882812 7.203125 -5.3125 C 7.203125 -4.96875 7.117188 -4.660156 6.953125 -4.390625 C 6.785156 -4.117188 6.546875 -3.90625 6.234375 -3.75 Z M 2.734375 -5.71875 L 2.734375 -4.328125 L 4.125 -4.328125 C 4.8125 -4.328125 5.15625 -4.5625 5.15625 -5.03125 C 5.15625 -5.488281 4.8125 -5.71875 4.125 -5.71875 Z M 4.4375 -1.46875 C 5.144531 -1.46875 5.5 -1.710938 5.5 -2.203125 C 5.5 -2.679688 5.144531 -2.921875 4.4375 -2.921875 L 2.734375 -2.921875 L 2.734375 -1.46875 Z M 4.4375 -1.46875 "/></g></g></g><g fill="#624e88" fill-opacity="1"><g transform="translate(61.340542, 15.734278)"><g><path d="M 4.34375 0.140625 C 3.582031 0.140625 2.898438 -0.0195312 2.296875 -0.34375 C 1.691406 -0.664062 1.210938 -1.109375 0.859375 -1.671875 C 0.515625 -2.242188 0.34375 -2.882812 0.34375 -3.59375 C 0.34375 -4.300781 0.515625 -4.9375 0.859375 -5.5 C 1.210938 -6.070312 1.691406 -6.519531 2.296875 -6.84375 C 2.898438 -7.164062 3.582031 -7.328125 4.34375 -7.328125 C 5.101562 -7.328125 5.785156 -7.164062 6.390625 -6.84375 C 6.992188 -6.519531 7.46875 -6.070312 7.8125 -5.5 C 8.15625 -4.9375 8.328125 -4.300781 8.328125 -3.59375 C 8.328125 -2.882812 8.15625 -2.242188 7.8125 -1.671875 C 7.46875 -1.109375 6.992188 -0.664062 6.390625 -0.34375 C 5.785156 -0.0195312 5.101562 0.140625 4.34375 0.140625 Z M 4.34375 -1.546875 C 4.707031 -1.546875 5.035156 -1.628906 5.328125 -1.796875 C 5.617188 -1.960938 5.847656 -2.203125 6.015625 -2.515625 C 6.191406 -2.828125 6.28125 -3.1875 6.28125 -3.59375 C 6.28125 -4 6.191406 -4.351562 6.015625 -4.65625 C 5.847656 -4.96875 5.617188 -5.207031 5.328125 -5.375 C 5.035156 -5.550781 4.707031 -5.640625 4.34375 -5.640625 C 3.976562 -5.640625 3.648438 -5.550781 3.359375 -5.375 C 3.066406 -5.207031 2.832031 -4.96875 2.65625 -4.65625 C 2.488281 -4.351562 2.40625 -4 2.40625 -3.59375 C 2.40625 -3.1875 2.488281 -2.828125 2.65625 -2.515625 C 2.832031 -2.203125 3.066406 -1.960938 3.359375 -1.796875 C 3.648438 -1.628906 3.976562 -1.546875 4.34375 -1.546875 Z M 4.34375 -1.546875 "/></g></g></g><g fill="#624e88" fill-opacity="1"><g transform="translate(69.862726, 15.734278)"><g><path d="M 2.25 -5.578125 L 0.046875 -5.578125 L 0.046875 -7.1875 L 6.484375 -7.1875 L 6.484375 -5.578125 L 4.28125 -5.578125 L 4.28125 0 L 2.25 0 Z M 2.25 -5.578125 "/></g></g></g><g fill="#624e88" fill-opacity="1"><g transform="translate(76.22098, 15.734278)"><g/></g></g><g fill="#624e88" fill-opacity="1"><g transform="translate(79.051322, 15.734278)"><g><path d="M 5.53125 -1.390625 L 2.5 -1.390625 L 1.9375 0 L -0.140625 0 L 3.03125 -7.1875 L 5.03125 -7.1875 L 8.21875 0 L 6.09375 0 Z M 4.9375 -2.890625 L 4.015625 -5.1875 L 3.09375 -2.890625 Z M 4.9375 -2.890625 "/></g></g></g><g fill="#624e88" fill-opacity="1"><g transform="translate(86.958173, 15.734278)"><g><path d="M 0.71875 -7.1875 L 2.75 -7.1875 L 2.75 0 L 0.71875 0 Z M 0.71875 -7.1875 "/></g></g></g><g fill="#d862b4" fill-opacity="1"><g transform="translate(32.079727, 21.056791)"><g><path d="M 0.171875 0 L 0.171875 -2.4375 L 2.03125 -2.4375 C 2.195312 -2.4375 2.34375 -2.40625 2.46875 -2.34375 C 2.59375 -2.289062 2.6875 -2.21875 2.75 -2.125 C 2.820312 -2.03125 2.859375 -1.914062 2.859375 -1.78125 C 2.859375 -1.65625 2.820312 -1.546875 2.75 -1.453125 C 2.6875 -1.359375 2.59375 -1.289062 2.46875 -1.25 C 2.613281 -1.21875 2.726562 -1.148438 2.8125 -1.046875 C 2.894531 -0.941406 2.9375 -0.816406 2.9375 -0.671875 C 2.9375 -0.535156 2.898438 -0.414062 2.828125 -0.3125 C 2.753906 -0.21875 2.648438 -0.140625 2.515625 -0.078125 C 2.378906 -0.0234375 2.222656 0 2.046875 0 Z M 0.65625 -1.40625 L 1.921875 -1.40625 C 2.054688 -1.40625 2.164062 -1.4375 2.25 -1.5 C 2.34375 -1.5625 2.390625 -1.644531 2.390625 -1.75 C 2.390625 -1.863281 2.34375 -1.953125 2.25 -2.015625 C 2.164062 -2.078125 2.050781 -2.109375 1.90625 -2.109375 L 0.65625 -2.109375 Z M 0.65625 -0.328125 L 1.921875 -0.328125 C 2.078125 -0.328125 2.203125 -0.359375 2.296875 -0.421875 C 2.398438 -0.492188 2.453125 -0.59375 2.453125 -0.71875 C 2.453125 -0.832031 2.398438 -0.925781 2.296875 -1 C 2.203125 -1.070312 2.078125 -1.109375 1.921875 -1.109375 L 0.65625 -1.109375 Z M 0.65625 -0.328125 "/></g></g></g><g fill="#d862b4" fill-opacity="1"><g transform="translate(35.584557, 21.056791)"><g><path d="M 1.203125 0 L 1.203125 -0.890625 L 0 -2.4375 L 0.546875 -2.4375 L 1.453125 -1.25 L 2.34375 -2.4375 L 2.890625 -2.4375 L 1.6875 -0.890625 L 1.6875 0 Z M 1.203125 0 "/></g></g></g><g fill="#d862b4" fill-opacity="1"><g transform="translate(38.969006, 21.056791)"><g/></g></g><g fill="#d862b4" fill-opacity="1"><g transform="translate(40.461737, 21.056791)"><g><path d="M 0.015625 0 L 1.28125 -2.4375 L 1.84375 -2.4375 L 3.09375 0 L 2.59375 0 L 2.3125 -0.53125 L 0.796875 -0.53125 L 0.515625 0 Z M 0.9375 -0.859375 L 2.171875 -0.859375 L 1.5625 -2.09375 L 1.546875 -2.09375 Z M 0.9375 -0.859375 "/></g></g></g><g fill="#d862b4" fill-opacity="1"><g transform="translate(44.073193, 21.056791)"><g><path d="M 0.171875 0 L 0.171875 -2.4375 L 0.765625 -2.4375 L 2.515625 -0.46875 L 2.515625 -2.4375 L 2.984375 -2.4375 L 2.984375 0 L 2.375 0 L 0.640625 -1.96875 L 0.625 -1.96875 L 0.625 0 Z M 0.171875 0 "/></g></g></g><g fill="#d862b4" fill-opacity="1"><g transform="translate(47.725922, 21.056791)"><g><path d="M 0.015625 0 L 1.28125 -2.4375 L 1.84375 -2.4375 L 3.09375 0 L 2.59375 0 L 2.3125 -0.53125 L 0.796875 -0.53125 L 0.515625 0 Z M 0.9375 -0.859375 L 2.171875 -0.859375 L 1.5625 -2.09375 L 1.546875 -2.09375 Z M 0.9375 -0.859375 "/></g></g></g><g fill="#d862b4" fill-opacity="1"><g transform="translate(51.337377, 21.056791)"><g><path d="M 1.75 0.078125 C 1.507812 0.078125 1.289062 0.046875 1.09375 -0.015625 C 0.894531 -0.078125 0.722656 -0.164062 0.578125 -0.28125 C 0.441406 -0.394531 0.332031 -0.53125 0.25 -0.6875 C 0.164062 -0.84375 0.125 -1.015625 0.125 -1.203125 C 0.125 -1.390625 0.164062 -1.5625 0.25 -1.71875 C 0.332031 -1.882812 0.445312 -2.023438 0.59375 -2.140625 C 0.738281 -2.265625 0.910156 -2.359375 1.109375 -2.421875 C 1.304688 -2.484375 1.523438 -2.515625 1.765625 -2.515625 C 1.992188 -2.515625 2.203125 -2.484375 2.390625 -2.421875 C 2.585938 -2.359375 2.753906 -2.269531 2.890625 -2.15625 C 3.023438 -2.050781 3.113281 -1.925781 3.15625 -1.78125 L 2.71875 -1.671875 C 2.6875 -1.765625 2.625 -1.847656 2.53125 -1.921875 C 2.4375 -1.992188 2.320312 -2.050781 2.1875 -2.09375 C 2.050781 -2.132812 1.910156 -2.15625 1.765625 -2.15625 C 1.546875 -2.15625 1.347656 -2.113281 1.171875 -2.03125 C 0.992188 -1.945312 0.851562 -1.832031 0.75 -1.6875 C 0.65625 -1.550781 0.609375 -1.390625 0.609375 -1.203125 C 0.609375 -1.023438 0.660156 -0.863281 0.765625 -0.71875 C 0.878906 -0.582031 1.03125 -0.472656 1.21875 -0.390625 C 1.40625 -0.316406 1.617188 -0.28125 1.859375 -0.28125 C 2.078125 -0.28125 2.269531 -0.3125 2.4375 -0.375 C 2.613281 -0.445312 2.753906 -0.539062 2.859375 -0.65625 C 2.960938 -0.769531 3.015625 -0.90625 3.015625 -1.0625 L 1.25 -1.0625 L 1.25 -1.359375 L 3.484375 -1.359375 L 3.484375 0 L 3.09375 0 L 3.0625 -0.5 C 2.9375 -0.320312 2.757812 -0.179688 2.53125 -0.078125 C 2.300781 0.0234375 2.039062 0.078125 1.75 0.078125 Z M 1.75 0.078125 "/></g></g></g></svg>